<?xml version="1.0" encoding="utf-8"?>
<!-- Generator: Adobe Illustrator 19.0.0, SVG Export Plug-In . SVG Version: 6.00 Build 0)  -->
<svg version="1.1" id="Layer_1" xmlns="http://www.w3.org/2000/svg" xmlns:xlink="http://www.w3.org/1999/xlink" x="0px" y="0px"
	 viewBox="0 0 211 213" style="enable-background:new 0 0 211 213;" xml:space="preserve">
<g id="XMLID_1018_">
	<g id="XMLID_132_">
		<path id="XMLID_136_" d="M36.5,208.1c-0.1,0.1-0.1,0.1-0.2,0.2c0.3,0.2,0.5,0.4,0.8,0.6c0.9-1.2,2.6-2.3,3.7-3.2
			c1.6-1.3,3.4-2.3,4.8-3.8c0.2-0.2,0.2-0.5,0-0.7c-0.5-0.6-1.7-1.6-2.5-1.6c-0.8,0-1.3,0.7-1.8,1.2c-1,1.1-2.2,1.9-3.3,2.8
			c-1.3,1.1-2.9,2-4,3.3c-0.1,0.1-0.2,0.3-0.1,0.5c0.4,1.3,1.7,1.8,3,2c0.6,0.1,0.6-0.9,0-1c-3.3-0.4-0.6-1.9,0.1-2.5
			c1.1-1,2.3-1.9,3.4-2.8c0.7-0.5,1.2-1.2,1.8-1.7c0.9-0.8,1.9-0.3,2.7,0.7c0-0.2,0-0.5,0-0.7c-2.6,2.6-6.4,4.3-8.7,7.2
			c-0.4,0.5,0.4,1,0.8,0.6c0.1-0.1,0.1-0.1,0.2-0.2C37.6,208.4,36.9,207.7,36.5,208.1L36.5,208.1z"/>
	</g>
</g>
<g id="XMLID_1019_">
	<g id="XMLID_126_">
		<path id="XMLID_130_" d="M43.5,199.5c0-0.6,0.1-0.9,0.2-1.5c0.1-0.9,0-1.8,0.2-2.7c-0.2,0.1-0.4,0.2-0.6,0.3
			c0.9,0.4,0.5,2.7,1.7,2.7c0.5,0,1-0.7,1.3-1c0.3-0.3,1.4-1.4,1.9-1.5c-0.2-0.2-0.4-0.4-0.6-0.6c-0.3,1.2,0.3,2.2,1.3,2.9
			c0.6,0.4,1.7,0.7,1.7-0.4c0-0.7-0.9-0.6-1,0c-0.1,0.8-1.7,1.5-2.3,1.9c-0.6,0.5-1.2,1.2-2,1.4c-0.6,0.2-0.4,1.1,0.3,1
			c1.1-0.3,2-1.2,2.8-1.8c1-0.7,2.1-1.1,2.2-2.4c-0.3,0-0.7,0-1,0c0.2-0.2,0.2-0.4-0.1-0.4c-0.2-0.1-0.3-0.2-0.4-0.3
			c-0.5-0.4-0.7-0.9-0.6-1.5c0.1-0.4-0.2-0.7-0.6-0.6c-0.5,0.1-0.9,0.5-1.2,0.8c-0.2,0.2-0.5,0.4-0.7,0.6c-0.1,0.1-1.2,1-0.8,1
			c0.3,0-0.2-0.7-0.3-1c-0.1-0.2-0.2-0.5-0.3-0.7c-0.2-0.5-0.5-0.8-1-1c-0.2-0.1-0.6,0.1-0.6,0.3c-0.2,0.9-0.1,1.7-0.2,2.6
			c-0.1,0.6-0.2,1.1-0.2,1.8C42.5,200.1,43.5,200.1,43.5,199.5L43.5,199.5z"/>
	</g>
</g>
<g id="XMLID_1020_">
	<g id="XMLID_120_">
		<path id="XMLID_124_" d="M121.2,140.7c-2.6,0.4-5,3.1-7,4.7c-3.2,2.6-6.6,4.8-10,7c-1.6,1-2.9,2.4-4.3,3.7
			c-1.8,1.6-3.8,2.8-5.7,4.2c-3,2.4-6,5-9.2,7.1c-6.2,4.1-12,8.9-18.1,13.2c-6.7,4.8-13.3,9.8-19.6,15.2c-0.5,0.4,0.2,1.1,0.7,0.7
			C54.4,191,61.3,186,68,181c5.7-4.3,11.5-8.7,17.4-12.7c3-2,5.9-4.3,8.7-6.7c1.6-1.4,3.6-2.4,5.2-3.7c1.6-1.3,2.9-3,4.6-4.2
			c3-2.2,6.3-4.1,9.3-6.2c1.2-0.9,2.4-1.8,3.6-2.8c1.4-1.1,2.7-2.8,4.6-3.1C122.1,141.6,121.8,140.6,121.2,140.7L121.2,140.7z"/>
	</g>
</g>
<g id="XMLID_1021_">
	<g id="XMLID_114_">
		<path id="XMLID_118_" d="M121.4,142.9c-1.4,0.5-2.5,1.7-3.6,2.6c-1.4,1.2-2.9,2.3-4.4,3.4c-3.3,2.5-6.3,5.1-9.8,7.3
			c-6.5,4.1-12.1,9.5-18.6,13.7c-6.2,4.1-12.2,8.6-18,13.3c-3.2,2.5-6.3,5-9.4,7.7c-1.5,1.3-3.3,2.4-4.9,3.5c-1.5,1-2.6,2.3-4,3.4
			c0.3,0.1,0.6,0.1,0.8,0.2c0,0,0-0.1,0-0.1c-0.2-0.6-1.1-0.4-1,0.3c0,0,0,0.1,0,0.1c0.1,0.4,0.6,0.5,0.8,0.2c1.7-1.4,3.2-2.8,5-4
			c1.2-0.8,2.5-1.7,3.6-2.7c3-2.6,6.2-5.2,9.3-7.7c5.9-4.8,12.2-9.1,18.4-13.5c5.9-4.2,11.5-9.2,17.6-13.1c1.8-1.2,3.6-2.3,5.4-3.5
			c1.5-1,2.8-2.5,4.3-3.6c1.2-0.9,2.4-1.8,3.6-2.7c1.5-1.2,3.2-3.2,5.1-3.9C122.2,143.6,122,142.6,121.4,142.9L121.4,142.9z"/>
	</g>
</g>
<g id="XMLID_1024_">
	<g id="XMLID_108_">
		<path id="XMLID_112_" d="M122.4,143.1c0,0,0.1-0.1,0.1-0.1c-0.2-0.2-0.5-0.4-0.7-0.6c-0.3,1.9-1.4,4-2.1,5.8
			c-0.8,2.2-1.7,4.3-2.6,6.5c-1.7,4.4-3.6,8.9-5.2,13.3c-1.7,4.6-3.3,9.4-5.3,13.9c-1.1,2.4-2,4.9-3,7.4c-1,2.3-1.4,4.9-2.7,7
			c0.3,0,0.6,0.1,0.9,0.1c0,0,0-0.1,0-0.1c-0.2-0.6-1.2-0.3-1,0.3c0,0,0,0.1,0,0.1c0.1,0.4,0.7,0.5,0.9,0.1c1.3-2.1,1.8-4.7,2.7-7
			c1-2.4,1.9-4.8,2.9-7.1c2-4.4,3.8-9.1,5.3-13.7c1.5-4.5,3.5-8.9,5.1-13.3c0.9-2.3,1.9-4.6,2.7-6.9c0.7-1.9,1.9-4.2,2.2-6.1
			c0.1-0.4-0.3-0.9-0.7-0.6c0,0-0.1,0.1-0.1,0.1C121.4,142.6,121.9,143.5,122.4,143.1L122.4,143.1z"/>
	</g>
</g>
<g id="XMLID_1031_">
	<g id="XMLID_102_">
		<path id="XMLID_106_" d="M121.6,141.2c0,0,0.1-0.1,0.1-0.1c-0.3-0.1-0.6-0.1-0.8-0.2c0.2,1,1,2.5,2.2,2c0.5-0.2,1-0.5,1.3-0.9
			c0.3-0.3,0.3-0.7,0.3-1.2c0.1-0.6,0.2-1.7-0.7-1.8c-0.5,0-0.9,0.3-1.3,0.6c-0.2,0.2-0.4,0.4-0.6,0.6c-0.2,0.2-0.4,0.5-0.6,0.6
			c0.2,0.1,0.4,0.2,0.6,0.3c0-0.1,0-0.1-0.1-0.2c-0.2-0.6-1.1-0.4-1,0.3c0,0.1,0,0.1,0.1,0.2c0.1,0.3,0.3,0.4,0.6,0.3
			c0.6-0.1,0.9-0.7,1.3-1.1c0.2-0.2,0.4-0.4,0.6-0.5c0,0,0.1,0,0.1-0.1c0.1,0,0.1-0.1-0.1-0.1c0,0.1,0,0.5,0,0.6
			c0,0.2-0.1,0.4-0.1,0.6c0,0.3-0.2,0.5-0.5,0.6c-0.1,0.1-0.4,0.3-0.5,0.3c-0.2,0-0.2-0.2-0.3-0.3c-0.3-0.4-0.4-0.6-0.5-1.1
			c-0.1-0.4-0.6-0.4-0.8-0.2c0,0-0.1,0.1-0.1,0.1C120.4,140.9,121.1,141.6,121.6,141.2L121.6,141.2z"/>
	</g>
</g>
<g id="XMLID_1172_">
	<g id="XMLID_93_">
		<path id="XMLID_98_" d="M121.6,140.8c-5.7,0.5-11.1,2.5-16.4,4.2c-3.9,1.2-8.1,2-12,3.2c-3.8,1.1-7.5,2.3-11.4,3.3
			c-4.5,1.1-9.2,2-13.6,3.3c-3.9,1.2-7.7,2.7-11.6,3.8c-3.6,1-7.2,2.1-10.8,3c-3.1,0.8-6.3,2.2-9.5,2.6c-0.6,0.1-0.4,1,0.1,1
			c0.1,0,0.1,0,0.2,0c0.6,0,0.6-1,0-1c-0.1,0-0.1,0-0.2,0c0,0.3,0.1,0.7,0.1,1c3-0.5,6.1-1.8,9.1-2.5c3.7-0.9,7.3-2,10.9-3
			c3.9-1.1,7.6-2.5,11.5-3.8c4.3-1.4,8.8-2.1,13.2-3.2c7.6-1.9,15-4.4,22.6-6.2c6-1.4,11.7-4.1,17.8-4.6
			C122.2,141.8,122.2,140.8,121.6,140.8L121.6,140.8z"/>
	</g>
</g>
<g id="XMLID_1173_">
	<g id="XMLID_71_">
		<path id="XMLID_75_" d="M205.6,118.2c-1.8,0.7-3.6,1.3-5.5,1.8c-3.3,1-6.7,2.1-10,2.9c-7.1,1.8-14.4,3.2-21.5,5.3
			c-14.8,4.4-29.9,8.1-44.8,11.8c-0.6,0.2-0.4,1.1,0.3,1c15-3.7,30-7.4,44.8-11.8c3.6-1.1,7.3-1.7,11-2.6c3.3-0.8,6.7-1.8,10-2.6
			c3.4-0.8,6.7-1.9,10-2.9c2-0.6,3.9-1.2,5.8-1.9C206.5,118.9,206.2,118,205.6,118.2L205.6,118.2z"/>
	</g>
</g>
<g id="XMLID_1174_">
	<g id="XMLID_84_">
		<path id="XMLID_88_" d="M147.6,78.1c-2,4.8-4.2,9.6-5.9,14.5c-1.9,5.3-3.7,10.6-5.8,15.8c-2.3,5.7-4.5,11.3-6.8,17
			c-1,2.4-1.9,5-2.8,7.5c-0.8,2.4-2.4,5-2.8,7.5c0.3,0,0.7,0.1,1,0.1c0-0.3,0-0.6,0-0.8c0-0.6-1-0.6-1,0c0,0.3,0,0.6,0,0.8
			c0,0.5,0.9,0.7,1,0.1c0.3-2.5,1.9-4.8,2.7-7.2c0.8-2.5,1.8-4.9,2.7-7.4c2.2-5.5,4.4-11,6.6-16.6c2-5,3.7-10,5.5-15.1
			c1.9-5.3,4.2-10.6,6.4-15.8C148.7,78,147.8,77.5,147.6,78.1L147.6,78.1z"/>
	</g>
</g>
<g id="XMLID_4_">
	<g id="XMLID_131_">
		<path id="XMLID_141_" d="M77.2,63c-1.8,9.3-6.8,17.7-9.1,26.9c-1.8,7.2-4.2,14.3-6.6,21.4c-0.2,0.6,0.8,0.9,1,0.3
			c2.3-7.1,4.8-14.2,6.6-21.4c2.3-9.2,7.3-17.5,9.1-26.9C78.3,62.6,77.4,62.3,77.2,63L77.2,63z"/>
	</g>
</g>
<g id="XMLID_5_">
	<g id="XMLID_80_">
		<path id="XMLID_91_" d="M77.7,63.6c0.6,0,0.6-1,0-1C77.1,62.6,77.1,63.6,77.7,63.6L77.7,63.6z"/>
	</g>
</g>
<g id="XMLID_1_">
	<g id="XMLID_67_">
		<path id="XMLID_78_" d="M78.5,60.4c0.6,0,0.6-1,0-1C77.9,59.4,77.9,60.4,78.5,60.4L78.5,60.4z"/>
	</g>
</g>
<g id="XMLID_1175_">
	<g id="XMLID_153_">
		<path id="XMLID_157_" d="M96.5,6c-0.5,2.2-1.4,4.3-2,6.5c-0.7,2.4-1.4,4.8-2.3,7c-1.7,4.3-3.5,8.6-5.2,12.9
			c-1.7,4.3-2.8,8.9-4.2,13.3c-1.5,4.7-3.3,9.2-4.7,13.9c-0.2,0.6,0.8,0.9,1,0.3c1.3-4.6,3.1-9,4.5-13.5c1.5-4.6,2.6-9.3,4.4-13.8
			c1.7-4.3,3.6-8.5,5.2-12.8c0.8-2.2,1.5-4.5,2.2-6.7c0.7-2.3,1.6-4.6,2.1-6.9C97.6,5.6,96.6,5.4,96.5,6L96.5,6z"/>
	</g>
</g>
<g id="XMLID_2_">
	<g id="XMLID_159_">
		<path id="XMLID_163_" d="M76.1,61.1c-6.2,1.4-12.6,2.4-18.7,4.1C51,67,44.7,69.1,38.3,70.6C27,73.2,15.8,76.3,4.9,80.3
			c-0.6,0.2-0.3,1.2,0.3,1c10.9-4,22.1-7.1,33.4-9.7c6.3-1.5,12.4-3.4,18.7-5.2c6.3-1.8,12.8-2.8,19.2-4.3
			C77,61.9,76.8,61,76.1,61.1L76.1,61.1z"/>
	</g>
</g>
<g id="XMLID_1176_">
	<g id="XMLID_92_">
		<path id="XMLID_119_" d="M148.9,43.7c-11.4,2.7-22.9,5.3-34.3,7.7c-5.8,1.2-11.6,2.7-17.5,4.1c-5.7,1.4-11.2,3.5-16.9,4.7
			c-0.6,0.1-0.4,1.1,0.3,1c5.6-1.2,10.9-3.3,16.4-4.6c6-1.4,11.9-2.9,17.9-4.2c11.5-2.4,22.9-5.1,34.3-7.7
			C149.8,44.5,149.5,43.6,148.9,43.7L148.9,43.7z"/>
	</g>
</g>
<g id="XMLID_1459_">
	<g id="XMLID_147_">
		<path id="XMLID_167_" d="M77.1,63.6c0,0,0,0.1,0,0.1c0.1,0.3,0.4,0.4,0.6,0.3c0.4-0.1,0.6-0.4,0.8-0.8c0.1-0.2,0.2-0.5,0.4-0.7
			c0.4-0.4,0.8-0.3,1.2-0.1c0.5,0.1,0.8-0.5,0.5-0.8c-0.3-0.4-0.6-0.9-0.9-1.4c-0.3-0.4-0.4-0.9-0.8-1.1c-0.8-0.5-1.6,0.2-2.2,0.7
			c-0.8,0.6-1.2,1.3-0.8,2.3c0.3,0.7,0.9,1.8,1.8,1.7c0.6,0,0.6-1,0-1c-0.5,0-1.1-1.4-0.9-1.7c0.2-0.3,1-1,1.3-1.1
			c0.4-0.1,0.4,0.2,0.6,0.5c0.1,0.2,0.2,0.3,0.3,0.5c0.3,0.4,0.5,0.9,0.9,1.3c0.2-0.3,0.3-0.6,0.5-0.8c-0.6-0.2-1.3-0.3-1.9,0.1
			C78.1,62,78,63,77.5,63.1c0.2,0.1,0.4,0.2,0.6,0.3c0,0,0-0.1,0-0.1C78,62.7,77,63,77.1,63.6L77.1,63.6z"/>
	</g>
</g>
<g id="XMLID_3136_">
	<g id="XMLID_54_">
		<path id="XMLID_58_" d="M79.7,61.8c1.8,1.1,2.7,4.5,3.6,6.3c0.9,1.8,1.8,3.5,3,5.1c0.2-0.3,0.4-0.5,0.6-0.8
			c-0.8-0.4-1.2-0.6-2.1-0.1c-0.4,0.2-0.5,0.5-0.8,0.8c-0.6,0.5,0.1,1-0.4-0.3c-0.8-2-2.3-3.7-3.3-5.5c-0.8-1.4-1.6-2.7-2.3-4.1
			c-0.3-0.6-1.2-0.1-0.9,0.5c0.9,1.6,1.8,3.1,2.7,4.7c0.6,1.1,1.3,2,2,3c0.6,1,1,2.1,1.7,3c0.2,0.2,0.3,0.3,0.6,0.2
			c0.1,0,0.2,0,0.3,0c0.2,0,0.3-0.2,0.3-0.3c0.4-1.1,1-1.4,1.9-1c0.5,0.2,1-0.3,0.6-0.8c-1.7-2.1-2.8-4.8-3.9-7.2
			c-0.6-1.3-1.5-3.5-2.9-4.3C79.7,60.6,79.2,61.5,79.7,61.8L79.7,61.8z"/>
	</g>
</g>
<g id="XMLID_3143_">
	<g id="XMLID_48_">
		<path id="XMLID_52_" d="M109.8,122.5c0,0.6,0.6,1.2,0.8,1.8c0.2,0.5,0.4,1.2,0.9,1.4c0.5,0.3,1-0.1,1.3-0.5c0.7-0.8,1.2-1.3,2.3-1
			c0.2,0,0.4,0,0.5-0.1c0.6-0.6-0.1-1.3-0.4-1.9c-0.3-0.5-0.7-0.9-0.9-1.5c-0.2-0.4-0.3-0.7-0.7-0.8c-1-0.4-2.1,0.6-2.7,1.3
			c-0.6,0.7-1,1.4-0.3,2.1c0.4,0.5,1.1-0.2,0.7-0.7c-0.3-0.3,0.7-1.1,0.9-1.3c0.3-0.3,0.8-0.6,1.2-0.2c0.1,0.1,0.3,0.4,0.4,0.6
			c0.4,0.6,1,1.4,1.2,2.1c0-0.2,0.1-0.3,0.1-0.5c0,0-0.1,0.1-0.1,0.1c0.2,0,0.3-0.1,0.5-0.1c-1.1-0.3-2.1-0.1-2.9,0.7
			c0,0-0.6,0.8-0.5,0.8c-0.1,0-0.3-0.5-0.3-0.5c-0.2-0.3-0.3-0.7-0.5-1c-0.1-0.2-0.4-0.6-0.4-0.8
			C110.7,121.9,109.7,121.9,109.8,122.5L109.8,122.5z"/>
	</g>
</g>
<g id="XMLID_4354_">
	<g id="XMLID_42_">
		<path id="XMLID_46_" d="M112.2,125.3c0.8,1.9,1.9,3.9,3,5.8c1,1.7,1.9,3.7,3.2,5.2c0.3,0.3,0.7,0.1,0.8-0.2c0.3-0.6,0.2-1.7,1.6-1
			c0.5,0.3,1-0.4,0.6-0.8c-1.5-1.4-2.1-3.9-3.1-5.6c-0.9-1.8-2-3.5-3.1-5.1c-0.2-0.3-0.5-0.3-0.8-0.1c0,0-0.1,0.1-0.1,0.1
			c-0.5,0.4,0.2,1.1,0.7,0.7c0,0,0.1-0.1,0.1-0.1c-0.3,0-0.5-0.1-0.8-0.1c1.2,1.9,2.4,3.8,3.4,5.8c0.9,1.7,1.4,3.8,2.9,5.2
			c0.2-0.3,0.4-0.5,0.6-0.8c-1.8-1-2.5,0.1-3.1,1.6c0.3-0.1,0.6-0.1,0.8-0.2c-1.3-1.6-2.4-3.8-3.4-5.6c-0.9-1.6-1.9-3.4-2.6-5.1
			C112.8,124.2,111.9,124.7,112.2,125.3L112.2,125.3z"/>
	</g>
</g>
<g id="XMLID_4361_">
	<g id="XMLID_36_">
		<path id="XMLID_40_" d="M118.9,135.6c0.3,0.1,0.7,1,0.8,1.2c0.3,0.4,0.5,0.8,0.7,1.2c0.3,0.6,1.1,1.2,1.7,0.5
			c0.5-0.7-0.1-1.5-0.5-2c-0.3-0.4-0.6-0.9-0.8-1.4c-0.2-0.4-0.4-0.7-0.8-0.9c-0.6-0.2-0.9,0.7-0.3,1c0.1,0.1,0.2,0.5,0.3,0.7
			c0.2,0.4,0.4,0.7,0.7,1c0.1,0.2,0.3,0.4,0.4,0.6c0,0.1,0.2,0.5,0.4,0.4c0,0-0.2-0.3-0.2-0.3c-0.3-0.6-0.7-1.2-1-1.7
			c-0.3-0.5-0.5-1.1-1.1-1.2C118.5,134.5,118.2,135.5,118.9,135.6L118.9,135.6z"/>
	</g>
</g>
<g id="XMLID_4384_">
	<g id="XMLID_30_">
		<path id="XMLID_34_" d="M118.3,135.5c-0.3,0.8,0.3,1.4,0.7,2c0.8,1.2,1.4,2.7,2,4c0.2,0.5,1,0.2,0.9-0.3c0-0.1,0-0.1,0-0.2
			c0-0.6-1-0.6-1,0c0,0.1,0,0.1,0,0.2c0.3-0.1,0.6-0.2,0.9-0.3c-0.5-1-1-2.1-1.5-3.1c-0.1-0.1-1.3-1.8-1.3-1.8
			C119.4,135.4,118.6,134.9,118.3,135.5L118.3,135.5z"/>
	</g>
</g>
<g id="XMLID_4386_">
	<g id="XMLID_24_">
		<path id="XMLID_28_" d="M120.5,134.8c0.3,0.8,0.9,1.6,1.4,2.4c0.3,0.5,0.6,1,0.8,1.5c0.2,0.4,0.7,0.9,0.8,1.4
			c0.2,0.6,1.2,0.3,1-0.3c-0.3-0.8-0.9-1.7-1.4-2.4c-0.3-0.5-0.5-1-0.8-1.4c-0.3-0.4-0.7-0.9-0.8-1.4
			C121.3,133.9,120.3,134.1,120.5,134.8L120.5,134.8z"/>
	</g>
</g>
<g id="XMLID_4398_">
	<g id="XMLID_18_">
		<path id="XMLID_22_" d="M83.9,74.4c0.6,1.8,2,3.3,3,4.8c1.1,1.8,2.1,3.7,3,5.6c2.2,4.6,4.9,9,7.4,13.4c2.2,3.8,4.5,7.5,6.7,11.3
			c2.2,4,3.7,8.3,6.5,11.9c0.4,0.5,1.3,0,0.9-0.5c-2.6-3.4-4.2-7.4-6.1-11.2c-1.9-3.9-4.5-7.5-6.6-11.3c-2.3-4.2-4.7-8.4-7.1-12.6
			c-1.1-1.9-1.8-3.9-3-5.8c-1.1-1.9-3-3.9-3.7-6C84.7,73.5,83.7,73.8,83.9,74.4L83.9,74.4z"/>
	</g>
</g>
<g id="XMLID_4405_">
	<g id="XMLID_12_">
		<path id="XMLID_16_" d="M85.5,73.5c1.6,1.7,2.8,4.2,3.9,6.3c1.1,2,2.3,3.9,3.5,5.9c2.5,4.3,4.6,8.9,7.1,13.2
			c2,3.4,3.6,7.2,5.8,10.5c1.4,2.1,2.6,4.3,3.7,6.5c1,1.8,1.6,3.7,3,5.2c0.4,0.4,1.1-0.1,0.8-0.6c0-0.1-0.1-0.1-0.1-0.2
			c-0.3-0.6-1.2-0.1-0.9,0.5c0,0.1,0.1,0.1,0.1,0.2c0.3-0.2,0.5-0.4,0.8-0.6c-1.6-1.6-2.3-4-3.4-5.9c-1.1-2-2.1-3.9-3.3-5.8
			c-2.4-3.7-4.4-7.8-6.5-11.6c-2.4-4.2-4.3-8.8-6.9-12.8c-2.4-3.6-3.9-8.2-7-11.4C85.8,72.3,85.1,73,85.5,73.5L85.5,73.5z"/>
	</g>
</g>
</svg>
